<svg xmlns="http://www.w3.org/2000/svg" width="1600" height="1580" viewBox="0 0 1600 1580" role="img" aria-labelledby="title desc">
  <title id="title">DAgents icon system</title>
  <desc id="desc">DAgents 专有 SVG 图标系统设计画板，按品牌导航、智能体 Auto、工作组管理、工具工作区、状态操作分组。</desc>
  <defs>
    <linearGradient id="board" x1="0" y1="0" x2="1" y2="1"><stop stop-color="#07101b"/><stop offset=".58" stop-color="#0c1727"/><stop offset="1" stop-color="#11182a"/></linearGradient>
    <linearGradient id="card" x1="0" y1="0" x2="0" y2="1"><stop stop-color="#14243a"/><stop offset="1" stop-color="#0d1a2c"/></linearGradient>
    <linearGradient id="blue" x1="0" y1="0" x2="1" y2="1"><stop stop-color="#90ecff"/><stop offset="1" stop-color="#779bff"/></linearGradient>
    <linearGradient id="violet" x1="0" y1="0" x2="1" y2="1"><stop stop-color="#e0a9ff"/><stop offset="1" stop-color="#8db5ff"/></linearGradient>
    <linearGradient id="warm" x1="0" y1="0" x2="1" y2="1"><stop stop-color="#ffd990"/><stop offset="1" stop-color="#ff9d9d"/></linearGradient>
    <filter id="shadow" x="-20%" y="-20%" width="140%" height="160%"><feDropShadow dx="0" dy="8" stdDeviation="10" flood-color="#020611" flood-opacity=".34"/></filter>
    <pattern id="grain" width="36" height="36" patternUnits="userSpaceOnUse"><path d="M0 35.5h36M35.5 0v36" stroke="#7192bd" stroke-opacity=".055"/></pattern>
    <style>
      .label{font-family:Inter,"Segoe UI","Microsoft YaHei",sans-serif;fill:#eef6ff}
      .section-title{font-size:16px;font-weight:700;letter-spacing:.04em}
      .section-note{font-size:11px;fill:#8ea5bd}
      .key{font:600 12px ui-monospace,SFMono-Regular,Consolas,monospace;fill:#eef6ff}
      .meaning{font-size:11px;fill:#93a9c1}
      .footer{font-size:11px;fill:#71869e}
      .icon{fill:none;stroke:currentColor;stroke-width:1.6;stroke-linecap:round;stroke-linejoin:round}
      .icon-fill{fill:currentColor;stroke:none}
      .card-blue{color:#8ddfff}.card-violet{color:#c3adff}.card-warm{color:#ffd28d}.card-green{color:#87e4bb}.card-red{color:#ff9a9a}
    </style>

    <!-- DAgents DNA: six-way geometry, 60° turns, one crystal centre. -->
    <symbol id="i-brand-snowflake" viewBox="0 0 24 24"><path class="icon" d="M12 3v18M4.2 7.5l15.6 9M4.2 16.5l15.6-9M8.5 5l3.5 2 3.5-2M8.5 19l3.5-2 3.5 2M5 11l3.5 1 0 4M19 11l-3.5 1 0 4"/><path class="icon" d="m12 9.2 2.8 2.8-2.8 2.8-2.8-2.8Z"/></symbol>
    <symbol id="i-agent" viewBox="0 0 24 24"><circle class="icon" cx="12" cy="8" r="3.2"/><path class="icon" d="M5.5 20c.4-3.8 2.6-6 6.5-6s6.1 2.2 6.5 6M9 8h.01M15 8h.01"/></symbol>
    <symbol id="i-workgroup" viewBox="0 0 24 24"><circle class="icon" cx="12" cy="6" r="2.4"/><circle class="icon" cx="6" cy="17" r="2.4"/><circle class="icon" cx="18" cy="17" r="2.4"/><path class="icon" d="M12 8.5v3M10.4 12.7 7.7 15M13.6 12.7l2.7 2.3"/></symbol>
    <symbol id="i-auto" viewBox="0 0 24 24"><ellipse class="icon" cx="12" cy="12" rx="8.2" ry="4.2" transform="rotate(-28 12 12)"/><circle class="icon" cx="12" cy="12" r="2.1"/><path class="icon" d="m18.2 5.5.6 2.2 2.1.7-2.1.7-.6 2.2-.7-2.2-2.1-.7 2.1-.7Z"/></symbol>
    <symbol id="i-node" viewBox="0 0 24 24"><path class="icon" d="m12 3.8 7 4v8.4l-7 4-7-4V7.8Z"/><path class="icon" d="m5 7.8 7 4 7-4M12 11.8v8.4"/></symbol>
    <symbol id="i-manage" viewBox="0 0 24 24"><path class="icon" d="m12 3.5 7 2.7v5.5c0 4.1-2.4 7-7 8.8-4.6-1.8-7-4.7-7-8.8V6.2Z"/><path class="icon" d="M8.5 12h7M12 8.5v7"/></symbol>
    <symbol id="i-settings" viewBox="0 0 24 24"><circle class="icon" cx="12" cy="12" r="2.5"/><path class="icon" d="M12 4v2M12 18v2M4 12h2M18 12h2M6.3 6.3l1.4 1.4M16.3 16.3l1.4 1.4M17.7 6.3l-1.4 1.4M7.7 16.3l-1.4 1.4"/><circle class="icon" cx="12" cy="12" r="7.4"/></symbol>
    <symbol id="i-feedback" viewBox="0 0 24 24"><path class="icon" d="M4.5 6.8c0-1.3 1-2.3 2.3-2.3h10.4c1.3 0 2.3 1 2.3 2.3v6.7c0 1.3-1 2.3-2.3 2.3h-6.4l-4.2 3v-3.2H6.8c-1.3 0-2.3-1-2.3-2.3Z"/><path class="icon" d="M8.5 9.5h7M8.5 12.5h4.5"/></symbol>
    <symbol id="i-create" viewBox="0 0 24 24"><circle class="icon" cx="12" cy="12" r="8"/><path class="icon" d="M12 8v8M8 12h8"/></symbol>
    <symbol id="i-search" viewBox="0 0 24 24"><circle class="icon" cx="10.5" cy="10.5" r="5.7"/><path class="icon" d="m15 15 4.5 4.5"/></symbol>
    <symbol id="i-menu" viewBox="0 0 24 24"><path class="icon" d="M5 7h14M5 12h14M5 17h14"/></symbol>
    <symbol id="i-more" viewBox="0 0 24 24"><circle class="icon-fill" cx="6" cy="12" r="1.4"/><circle class="icon-fill" cx="12" cy="12" r="1.4"/><circle class="icon-fill" cx="18" cy="12" r="1.4"/></symbol>
    <symbol id="i-auto-overview" viewBox="0 0 24 24"><circle class="icon" cx="12" cy="12" r="7.4"/><path class="icon" d="M12 7v5l3.2 2M5 5l2 1M19 5l-2 1"/><circle class="icon" cx="12" cy="12" r="1.2"/></symbol>
    <symbol id="i-wake-trigger" viewBox="0 0 24 24"><circle class="icon" cx="12" cy="12.5" r="6.7"/><path class="icon" d="M12 9v3.7l2.5 1.5M9 4.2h6M18.8 6.2l1.6 1.4-1.6 1.4"/></symbol>
    <symbol id="i-dreaming" viewBox="0 0 24 24"><path class="icon" d="M16.8 5.2a7.5 7.5 0 1 0 2 13.1A8 8 0 0 1 16.8 5.2Z"/><path class="icon" d="m6 5 .4 1.4L8 7l-1.6.6L6 9l-.4-1.4L4 7l1.6-.6Z"/></symbol>
    <symbol id="i-experience-handbook" viewBox="0 0 24 24"><path class="icon" d="M4.5 5.5c2.4-.9 5.1-.4 7.5 1.2v12c-2.4-1.6-5.1-2.1-7.5-1.2ZM19.5 5.5c-2.4-.9-5.1-.4-7.5 1.2v12c2.4-1.6 5.1-2.1-7.5-1.2Z"/><path class="icon" d="M12 6.7v12M7 9h2M15 9h2"/></symbol>
    <symbol id="i-todo-list" viewBox="0 0 24 24"><rect class="icon" x="5" y="4.5" width="14" height="16" rx="2"/><path class="icon" d="m8 9 1.3 1.3L11.5 8M13.5 9H16M8 14l1.3 1.3 2.2-2.3M13.5 14H16"/></symbol>
    <symbol id="i-autonomy" viewBox="0 0 24 24"><path class="icon" d="M5 7h14M5 12h14M5 17h14"/><circle class="icon" cx="9" cy="7" r="1.8"/><circle class="icon" cx="15" cy="12" r="1.8"/><circle class="icon" cx="11" cy="17" r="1.8"/></symbol>
    <symbol id="i-model" viewBox="0 0 24 24"><path class="icon" d="M7 9.2C7 6.5 9.2 4.5 12 4.5s5 2 5 4.7c1.4.4 2.4 1.7 2.4 3.2 0 1.9-1.5 3.4-3.4 3.4H8c-1.9 0-3.4-1.5-3.4-3.4 0-1.5 1-2.8 2.4-3.2Z"/><path class="icon" d="M9 19.5h6M12 16v3.5"/></symbol>
    <symbol id="i-skills" viewBox="0 0 24 24"><path class="icon" d="m12 4.3 1.9 5.4 5.6.2-4.3 3.5 1.6 5.4-4.8-3-4.8 3 1.6-5.4-4.3-3.5 5.6-.2Z"/></symbol>
    <symbol id="i-tools" viewBox="0 0 24 24"><path class="icon" d="M15.3 5a4.6 4.6 0 0 0-5.2 5.2l-5.6 5.6a2 2 0 1 0 2.8 2.8l5.6-5.6A4.6 4.6 0 0 0 18 7.8l-2.6 2.5-2.2-.6-.6-2.2Z"/></symbol>
    <symbol id="i-memory" viewBox="0 0 24 24"><path class="icon" d="M7.5 4.5h8A1.5 1.5 0 0 1 17 6v14l-5-2.7L7 20V6a1.5 1.5 0 0 1 1.5-1.5Z"/><path class="icon" d="M10 9h4M10 12h4"/></symbol>
    <symbol id="i-workgroup-members" viewBox="0 0 24 24"><circle class="icon" cx="9" cy="8" r="2.5"/><path class="icon" d="M4.5 19c.3-3 1.8-4.8 4.5-4.8s4.2 1.8 4.5 4.8M16.5 10.5a2.2 2.2 0 1 0 0-4.4M15.3 14.5c2.3.1 3.6 1.7 4 4.5"/></symbol>
    <symbol id="i-dashboard" viewBox="0 0 24 24"><rect class="icon" x="4.5" y="4.5" width="6" height="6" rx="1"/><rect class="icon" x="13.5" y="4.5" width="6" height="6" rx="1"/><rect class="icon" x="4.5" y="13.5" width="6" height="6" rx="1"/><rect class="icon" x="13.5" y="13.5" width="6" height="6" rx="1"/></symbol>
    <symbol id="i-admin-access" viewBox="0 0 24 24"><path class="icon" d="m12 3.8 6.5 2.5v5.2c0 3.8-2.2 6.5-6.5 8.2-4.3-1.7-6.5-4.4-6.5-8.2V6.3Z"/><rect class="icon" x="9" y="10.5" width="6" height="5" rx="1"/><path class="icon" d="M10.5 10.5V9a1.5 1.5 0 0 1 3 0v1.5"/></symbol>
    <symbol id="i-publish" viewBox="0 0 24 24"><path class="icon" d="M5 17.5h14M12 17.5V5M8 9l4-4 4 4"/><path class="icon" d="M6 20h12"/></symbol>
    <symbol id="i-sync" viewBox="0 0 24 24"><path class="icon" d="M6 8a7 7 0 0 1 11.6-1.5L20 9M18 16a7 7 0 0 1-11.6 1.5L4 15"/><path class="icon" d="M20 5v4h-4M4 19v-4h4"/></symbol>
    <symbol id="i-feedback-inbox" viewBox="0 0 24 24"><path class="icon" d="M4.5 6.5h15v12h-15Z"/><path class="icon" d="M4.5 14h4l1.5 2h4l1.5-2h4M8 9h8"/></symbol>
    <symbol id="i-release-update" viewBox="0 0 24 24"><path class="icon" d="m12 4 7 4v8l-7 4-7-4V8Z"/><path class="icon" d="m5 8 7 4 7-4M12 12v8"/><path class="icon" d="M12 4v3M10.5 5.5 12 4l1.5 1.5"/></symbol>
    <symbol id="i-agent-registry" viewBox="0 0 24 24"><rect class="icon" x="4.5" y="4.5" width="15" height="15" rx="2"/><circle class="icon" cx="9" cy="10" r="1.8"/><path class="icon" d="M6.5 16c.3-2 1.1-3 2.5-3s2.2 1 2.5 3M14 9h3M14 12h3M14 15h3"/></symbol>
    <symbol id="i-audit-log" viewBox="0 0 24 24"><path class="icon" d="M7 4.5h8l3 3V19a1.5 1.5 0 0 1-1.5 1.5h-9A1.5 1.5 0 0 1 6 19V6a1.5 1.5 0 0 1 1.5-1.5Z"/><path class="icon" d="M15 4.5V8h3M9 11h6M9 14h6M9 17h4"/></symbol>
    <symbol id="i-invite" viewBox="0 0 24 24"><circle class="icon" cx="9" cy="8" r="2.5"/><path class="icon" d="M4.5 19c.3-3 1.8-4.8 4.5-4.8s4.2 1.8 4.5 4.8M17 12v6M14 15h6"/></symbol>
    <symbol id="i-permissions" viewBox="0 0 24 24"><circle class="icon" cx="8" cy="12" r="3"/><path class="icon" d="M11 12h8M16 12v2M18.5 12v2"/></symbol>
    <symbol id="i-filesystem" viewBox="0 0 24 24"><path class="icon" d="M5 5.5h5l2 2h7v11H5Z"/><path class="icon" d="M5 9h14M8 12v4M11 12v4M14 12v4"/></symbol>
    <symbol id="i-folder-open" viewBox="0 0 24 24"><path class="icon" d="M4.5 7h5l1.8 2h8.2v9.5H4.5Z"/><path class="icon" d="M4.5 11h15"/></symbol>
    <symbol id="i-file" viewBox="0 0 24 24"><path class="icon" d="M7.5 4.5h7l3 3V19a1.5 1.5 0 0 1-1.5 1.5h-8A1.5 1.5 0 0 1 6.5 19V6a1.5 1.5 0 0 1 1-1.5Z"/><path class="icon" d="M14.5 4.5V8h3.2M9.5 12h5M9.5 15h5"/></symbol>
    <symbol id="i-terminal" viewBox="0 0 24 24"><rect class="icon" x="4" y="5" width="16" height="14" rx="2"/><path class="icon" d="m8 9 3 3-3 3M13.5 15H17M8 20h8"/></symbol>
    <symbol id="i-browser" viewBox="0 0 24 24"><rect class="icon" x="3.5" y="4.5" width="17" height="15" rx="2"/><path class="icon" d="M3.5 8.5h17"/><circle class="icon-fill" cx="6.5" cy="6.5" r=".8"/><circle class="icon-fill" cx="9.3" cy="6.5" r=".8"/><circle class="icon-fill" cx="12.1" cy="6.5" r=".8"/></symbol>
    <symbol id="i-mcp" viewBox="0 0 24 24"><circle class="icon" cx="6" cy="12" r="2.5"/><circle class="icon" cx="18" cy="7" r="2.5"/><circle class="icon" cx="18" cy="17" r="2.5"/><path class="icon" d="m8.4 11 7.1-3M8.4 13l7.1 3"/></symbol>
    <symbol id="i-child-agent" viewBox="0 0 24 24"><circle class="icon" cx="12" cy="6.5" r="2.3"/><circle class="icon" cx="6.5" cy="17" r="2.3"/><circle class="icon" cx="17.5" cy="17" r="2.3"/><path class="icon" d="M12 8.8v3.1M12 11.9 7.8 15M12 11.9l4.2 3.1"/></symbol>
    <symbol id="i-shell" viewBox="0 0 24 24"><rect class="icon" x="3.5" y="5" width="17" height="14" rx="2"/><path class="icon" d="m7.5 9.5 3 2.5-3 2.5M13.5 14.5h3.5"/></symbol>
    <symbol id="i-clipboard" viewBox="0 0 24 24"><rect class="icon" x="6" y="5.5" width="12" height="15" rx="2"/><path class="icon" d="M9 5.5V4h6v1.5M9 11h6M9 14h4"/></symbol>
    <symbol id="i-upload" viewBox="0 0 24 24"><path class="icon" d="M5 16.5v3h14v-3M12 16V5M8.5 8.5 12 5l3.5 3.5"/></symbol>
    <symbol id="i-success" viewBox="0 0 24 24"><circle class="icon" cx="12" cy="12" r="8"/><path class="icon" d="m8 12 2.6 2.6L16.5 9"/></symbol>
    <symbol id="i-warning" viewBox="0 0 24 24"><path class="icon" d="m12 4 8 15H4Z"/><path class="icon" d="M12 9v4M12 16.5h.01"/></symbol>
    <symbol id="i-error" viewBox="0 0 24 24"><circle class="icon" cx="12" cy="12" r="8"/><path class="icon" d="m9 9 6 6M15 9l-6 6"/></symbol>
    <symbol id="i-info" viewBox="0 0 24 24"><circle class="icon" cx="12" cy="12" r="8"/><path class="icon" d="M12 10.5v5M12 7.5h.01"/></symbol>
    <symbol id="i-pending" viewBox="0 0 24 24"><circle class="icon" cx="12" cy="12" r="8"/><path class="icon" d="M12 8v4l2.7 2"/></symbol>
    <symbol id="i-run" viewBox="0 0 24 24"><path class="icon" d="m8 5 10 7-10 7Z"/></symbol>
    <symbol id="i-stop" viewBox="0 0 24 24"><rect class="icon" x="6" y="6" width="12" height="12" rx="2"/></symbol>
    <symbol id="i-refresh" viewBox="0 0 24 24"><path class="icon" d="M19 8a7.5 7.5 0 0 0-13.3-1.5L4 8.5M5 16a7.5 7.5 0 0 0 13.3 1.5L20 15.5"/><path class="icon" d="M4 5v3.5h3.5M20 19v-3.5h-3.5"/></symbol>
    <symbol id="i-save" viewBox="0 0 24 24"><path class="icon" d="M5 4.5h12l2 2V20H5Z"/><path class="icon" d="M8 4.5v5h7v-5M8 20v-6h8v6"/></symbol>
    <symbol id="i-edit" viewBox="0 0 24 24"><path class="icon" d="m5 17.8-.8 3 3-.8L18 9.2l-2.2-2.2Z"/><path class="icon" d="m14.5 7.5 2.2 2.2M5 20.5h3"/></symbol>
    <symbol id="i-delete" viewBox="0 0 24 24"><path class="icon" d="M5.5 7.5h13M9 7.5V5h6v2.5M7.5 7.5l.8 12h7.4l.8-12M10 11v5M14 11v5"/></symbol>
    <symbol id="i-check" viewBox="0 0 24 24"><path class="icon" d="m5.5 12.5 4 4 9-9"/></symbol>
    <symbol id="i-close" viewBox="0 0 24 24"><path class="icon" d="m7 7 10 10M17 7 7 17"/></symbol>
    <symbol id="i-back" viewBox="0 0 24 24"><path class="icon" d="M19 12H5M10 7l-5 5 5 5"/></symbol>
    <symbol id="i-forward" viewBox="0 0 24 24"><path class="icon" d="M5 12h14M14 7l5 5-5 5"/></symbol>
    <symbol id="i-expand" viewBox="0 0 24 24"><path class="icon" d="m6 9 6 6 6-6"/></symbol>
    <symbol id="i-collapse" viewBox="0 0 24 24"><path class="icon" d="m6 15 6-6 6 6"/></symbol>
    <symbol id="i-filter" viewBox="0 0 24 24"><path class="icon" d="M4.5 6h15l-5.7 6.4v5.1l-3.6 1.7v-6.8Z"/></symbol>
    <symbol id="i-copy" viewBox="0 0 24 24"><rect class="icon" x="8" y="8" width="11" height="11" rx="2"/><path class="icon" d="M16 8V6.5a2 2 0 0 0-2-2H6.5a2 2 0 0 0-2 2V14a2 2 0 0 0 2 2H8"/></symbol>

    <g id="card-frame"><rect width="350" height="62" rx="9" fill="url(#card)" stroke="#29425e" stroke-opacity=".75"/></g>
  </defs>

  <rect width="1600" height="1580" fill="url(#board)"/>
  <rect width="1600" height="1580" fill="url(#grain)"/>
  <text x="54" y="60" class="label" font-size="28" font-weight="750">DAgents 专有图标系统</text>
  <text x="56" y="89" class="label" font-size="13" fill="#9fb5cd">24×24 logical grid · 1.6px · round cap / join · currentColor · crystalline six-way DNA</text>
  <g transform="translate(1200 36)"><rect width="340" height="68" rx="12" fill="#102136" stroke="#345575"/><use href="#i-brand-snowflake" x="20" y="22" width="24" height="24" class="card-blue"/><text x="58" y="30" class="key">brand-snowflake</text><text x="58" y="49" class="meaning">完整雪花仅用于品牌锚点</text></g>

  <!-- 1: brand and navigation -->
  <g transform="translate(40 140)"><rect width="1520" height="258" rx="16" fill="#0b1728" fill-opacity=".76" stroke="#28445f"/><text x="24" y="34" class="label section-title">01  品牌与导航</text><text x="210" y="34" class="section-note">Node / Manage 共用的产品骨架与入口</text>
    <g transform="translate(24 52)"><use href="#card-frame"/><use href="#i-brand-snowflake" x="18" y="19" width="24" height="24" class="card-blue"/><text x="56" y="28" class="key">brand-snowflake</text><text x="56" y="47" class="meaning">品牌标识 / 启动页 / favicon</text></g>
    <g transform="translate(407 52)"><use href="#card-frame"/><use href="#i-agent" x="18" y="19" width="24" height="24" class="card-blue"/><text x="56" y="28" class="key">nav-agents</text><text x="56" y="47" class="meaning">智能体分组与列表</text></g>
    <g transform="translate(790 52)"><use href="#card-frame"/><use href="#i-workgroup" x="18" y="19" width="24" height="24" class="card-blue"/><text x="56" y="28" class="key">nav-workgroups</text><text x="56" y="47" class="meaning">工作组分组与列表</text></g>
    <g transform="translate(1173 52)"><use href="#card-frame"/><use href="#i-auto" x="18" y="19" width="24" height="24" class="card-violet"/><text x="56" y="28" class="key">nav-auto</text><text x="56" y="47" class="meaning">自主智能体分组</text></g>
    <g transform="translate(24 124)"><use href="#card-frame"/><use href="#i-node" x="18" y="19" width="24" height="24" class="card-blue"/><text x="56" y="28" class="key">nav-node</text><text x="56" y="47" class="meaning">Node 工作区 / 节点连接</text></g>
    <g transform="translate(407 124)"><use href="#card-frame"/><use href="#i-manage" x="18" y="19" width="24" height="24" class="card-violet"/><text x="56" y="28" class="key">nav-manage</text><text x="56" y="47" class="meaning">Manage 控制台</text></g>
    <g transform="translate(790 124)"><use href="#card-frame"/><use href="#i-settings" x="18" y="19" width="24" height="24" class="card-blue"/><text x="56" y="28" class="key">nav-settings</text><text x="56" y="47" class="meaning">设置导航与配置入口</text></g>
    <g transform="translate(1173 124)"><use href="#card-frame"/><use href="#i-feedback" x="18" y="19" width="24" height="24" class="card-violet"/><text x="56" y="28" class="key">nav-feedback</text><text x="56" y="47" class="meaning">帮助与反馈入口</text></g>
    <g transform="translate(24 188)"><use href="#card-frame"/><use href="#i-create" x="18" y="19" width="24" height="24" class="card-green"/><text x="56" y="28" class="key">create</text><text x="56" y="47" class="meaning">新建智能体 / 工作组</text></g>
    <g transform="translate(407 188)"><use href="#card-frame"/><use href="#i-search" x="18" y="19" width="24" height="24" class="card-blue"/><text x="56" y="28" class="key">search</text><text x="56" y="47" class="meaning">列表搜索与资源筛选</text></g>
    <g transform="translate(790 188)"><use href="#card-frame"/><use href="#i-menu" x="18" y="19" width="24" height="24" class="card-blue"/><text x="56" y="28" class="key">menu</text><text x="56" y="47" class="meaning">移动端菜单 / 侧栏</text></g>
    <g transform="translate(1173 188)"><use href="#card-frame"/><use href="#i-more" x="18" y="19" width="24" height="24" class="card-blue"/><text x="56" y="28" class="key">more</text><text x="56" y="47" class="meaning">悬浮操作 / 更多菜单</text></g>
  </g>

  <!-- 2: agent and auto -->
  <g transform="translate(40 418)"><rect width="1520" height="258" rx="16" fill="#0b1728" fill-opacity=".76" stroke="#28445f"/><text x="24" y="34" class="label section-title">02  智能体与 Auto</text><text x="210" y="34" class="section-note">角色、连续工作、记忆与长期任务语义</text>
    <g transform="translate(24 52)"><use href="#card-frame"/><use href="#i-agent" x="18" y="19" width="24" height="24" class="card-blue"/><text x="56" y="28" class="key">agent</text><text x="56" y="47" class="meaning">普通智能体 / 角色头像</text></g>
    <g transform="translate(407 52)"><use href="#card-frame"/><use href="#i-auto" x="18" y="19" width="24" height="24" class="card-violet"/><text x="56" y="28" class="key">auto</text><text x="56" y="47" class="meaning">自主智能体 / 轨道脉冲</text></g>
    <g transform="translate(790 52)"><use href="#card-frame"/><use href="#i-auto-overview" x="18" y="19" width="24" height="24" class="card-violet"/><text x="56" y="28" class="key">auto-overview</text><text x="56" y="47" class="meaning">自主总览入口</text></g>
    <g transform="translate(1173 52)"><use href="#card-frame"/><use href="#i-wake-trigger" x="18" y="19" width="24" height="24" class="card-violet"/><text x="56" y="28" class="key">wake-trigger</text><text x="56" y="47" class="meaning">唤醒频率 / Trigger</text></g>
    <g transform="translate(24 124)"><use href="#card-frame"/><use href="#i-dreaming" x="18" y="19" width="24" height="24" class="card-warm"/><text x="56" y="28" class="key">dreaming</text><text x="56" y="47" class="meaning">每日经验整理动作</text></g>
    <g transform="translate(407 124)"><use href="#card-frame"/><use href="#i-experience-handbook" x="18" y="19" width="24" height="24" class="card-violet"/><text x="56" y="28" class="key">experience-handbook</text><text x="56" y="47" class="meaning">经验索引 / 手册文件系统</text></g>
    <g transform="translate(790 124)"><use href="#card-frame"/><use href="#i-todo-list" x="18" y="19" width="24" height="24" class="card-blue"/><text x="56" y="28" class="key">todo-list</text><text x="56" y="47" class="meaning">自主任务清单</text></g>
    <g transform="translate(1173 124)"><use href="#card-frame"/><use href="#i-autonomy" x="18" y="19" width="24" height="24" class="card-violet"/><text x="56" y="28" class="key">autonomy</text><text x="56" y="47" class="meaning">自主激活设置与边界</text></g>
    <g transform="translate(24 188)"><use href="#card-frame"/><use href="#i-model" x="18" y="19" width="24" height="24" class="card-blue"/><text x="56" y="28" class="key">model</text><text x="56" y="47" class="meaning">LLM / 模型配置</text></g>
    <g transform="translate(407 188)"><use href="#card-frame"/><use href="#i-skills" x="18" y="19" width="24" height="24" class="card-violet"/><text x="56" y="28" class="key">skills</text><text x="56" y="47" class="meaning">可见技能 / Skill 能力</text></g>
    <g transform="translate(790 188)"><use href="#card-frame"/><use href="#i-tools" x="18" y="19" width="24" height="24" class="card-blue"/><text x="56" y="28" class="key">tools</text><text x="56" y="47" class="meaning">工具能力与策略</text></g>
    <g transform="translate(1173 188)"><use href="#card-frame"/><use href="#i-memory" x="18" y="19" width="24" height="24" class="card-violet"/><text x="56" y="28" class="key">memory</text><text x="56" y="47" class="meaning">记忆 / 上下文整理</text></g>
  </g>

  <!-- 3: workgroup and manage -->
  <g transform="translate(40 696)"><rect width="1520" height="258" rx="16" fill="#0b1728" fill-opacity=".76" stroke="#28445f"/><text x="24" y="34" class="label section-title">03  工作组与管理</text><text x="210" y="34" class="section-note">组织、权限、发布和 Manage 运维语义</text>
    <g transform="translate(24 52)"><use href="#card-frame"/><use href="#i-workgroup" x="18" y="19" width="24" height="24" class="card-blue"/><text x="56" y="28" class="key">workgroup</text><text x="56" y="47" class="meaning">工作组 / 协作空间</text></g>
    <g transform="translate(407 52)"><use href="#card-frame"/><use href="#i-workgroup-members" x="18" y="19" width="24" height="24" class="card-blue"/><text x="56" y="28" class="key">workgroup-members</text><text x="56" y="47" class="meaning">成员与 AgentRef</text></g>
    <g transform="translate(790 52)"><use href="#card-frame"/><use href="#i-dashboard" x="18" y="19" width="24" height="24" class="card-violet"/><text x="56" y="28" class="key">manage-dashboard</text><text x="56" y="47" class="meaning">Manage 首页总览</text></g>
    <g transform="translate(1173 52)"><use href="#card-frame"/><use href="#i-admin-access" x="18" y="19" width="24" height="24" class="card-violet"/><text x="56" y="28" class="key">admin-access</text><text x="56" y="47" class="meaning">管理员 / 访问控制</text></g>
    <g transform="translate(24 124)"><use href="#card-frame"/><use href="#i-publish" x="18" y="19" width="24" height="24" class="card-blue"/><text x="56" y="28" class="key">publish</text><text x="56" y="47" class="meaning">发布 / 上架</text></g>
    <g transform="translate(407 124)"><use href="#card-frame"/><use href="#i-sync" x="18" y="19" width="24" height="24" class="card-blue"/><text x="56" y="28" class="key">sync</text><text x="56" y="47" class="meaning">同步 / 节点刷新</text></g>
    <g transform="translate(790 124)"><use href="#card-frame"/><use href="#i-feedback-inbox" x="18" y="19" width="24" height="24" class="card-violet"/><text x="56" y="28" class="key">feedback-inbox</text><text x="56" y="47" class="meaning">Manage 意见收件箱</text></g>
    <g transform="translate(1173 124)"><use href="#card-frame"/><use href="#i-release-update" x="18" y="19" width="24" height="24" class="card-violet"/><text x="56" y="28" class="key">release-update</text><text x="56" y="47" class="meaning">版本 / 更新中心</text></g>
    <g transform="translate(24 188)"><use href="#card-frame"/><use href="#i-agent-registry" x="18" y="19" width="24" height="24" class="card-blue"/><text x="56" y="28" class="key">agent-registry</text><text x="56" y="47" class="meaning">Agent 注册与快照</text></g>
    <g transform="translate(407 188)"><use href="#card-frame"/><use href="#i-audit-log" x="18" y="19" width="24" height="24" class="card-violet"/><text x="56" y="28" class="key">audit-log</text><text x="56" y="47" class="meaning">操作审计 / 运行记录</text></g>
    <g transform="translate(790 188)"><use href="#card-frame"/><use href="#i-invite" x="18" y="19" width="24" height="24" class="card-blue"/><text x="56" y="28" class="key">invite</text><text x="56" y="47" class="meaning">邀请成员 / 添加 Agent</text></g>
    <g transform="translate(1173 188)"><use href="#card-frame"/><use href="#i-permissions" x="18" y="19" width="24" height="24" class="card-violet"/><text x="56" y="28" class="key">permissions</text><text x="56" y="47" class="meaning">权限策略 / 能力授权</text></g>
  </g>

  <!-- 4: tools and workspace -->
  <g transform="translate(40 974)"><rect width="1520" height="258" rx="16" fill="#0b1728" fill-opacity=".76" stroke="#28445f"/><text x="24" y="34" class="label section-title">04  工具与工作区</text><text x="210" y="34" class="section-note">工具来源、文件系统与本地执行环境</text>
    <g transform="translate(24 52)"><use href="#card-frame"/><use href="#i-filesystem" x="18" y="19" width="24" height="24" class="card-blue"/><text x="56" y="28" class="key">filesystem</text><text x="56" y="47" class="meaning">文件系统 / 手册目录</text></g>
    <g transform="translate(407 52)"><use href="#card-frame"/><use href="#i-folder-open" x="18" y="19" width="24" height="24" class="card-blue"/><text x="56" y="28" class="key">folder-open</text><text x="56" y="47" class="meaning">选择 / 打开工作目录</text></g>
    <g transform="translate(790 52)"><use href="#card-frame"/><use href="#i-file" x="18" y="19" width="24" height="24" class="card-blue"/><text x="56" y="28" class="key">file</text><text x="56" y="47" class="meaning">文件 / 配置 / 文档</text></g>
    <g transform="translate(1173 52)"><use href="#card-frame"/><use href="#i-terminal" x="18" y="19" width="24" height="24" class="card-green"/><text x="56" y="28" class="key">terminal</text><text x="56" y="47" class="meaning">终端会话 / 执行工具</text></g>
    <g transform="translate(24 124)"><use href="#card-frame"/><use href="#i-browser" x="18" y="19" width="24" height="24" class="card-green"/><text x="56" y="28" class="key">browser</text><text x="56" y="47" class="meaning">浏览器工具 / 页面</text></g>
    <g transform="translate(407 124)"><use href="#card-frame"/><use href="#i-mcp" x="18" y="19" width="24" height="24" class="card-violet"/><text x="56" y="28" class="key">mcp</text><text x="56" y="47" class="meaning">MCP 服务与外部工具</text></g>
    <g transform="translate(790 124)"><use href="#card-frame"/><use href="#i-child-agent" x="18" y="19" width="24" height="24" class="card-violet"/><text x="56" y="28" class="key">child-agent</text><text x="56" y="47" class="meaning">子智能体 / 委派任务</text></g>
    <g transform="translate(1173 124)"><use href="#card-frame"/><use href="#i-shell" x="18" y="19" width="24" height="24" class="card-green"/><text x="56" y="28" class="key">shell</text><text x="56" y="47" class="meaning">Shell 命令 / 本地通道</text></g>
    <g transform="translate(24 188)"><use href="#card-frame"/><use href="#i-clipboard" x="18" y="19" width="24" height="24" class="card-blue"/><text x="56" y="28" class="key">clipboard</text><text x="56" y="47" class="meaning">剪贴板 / 复制内容</text></g>
    <g transform="translate(407 188)"><use href="#card-frame"/><use href="#i-upload" x="18" y="19" width="24" height="24" class="card-blue"/><text x="56" y="28" class="key">upload</text><text x="56" y="47" class="meaning">上传 / 导入资源</text></g>
    <g transform="translate(790 188)"><use href="#card-frame"/><use href="#i-skills" x="18" y="19" width="24" height="24" class="card-violet"/><text x="56" y="28" class="key">tool-skills</text><text x="56" y="47" class="meaning">工具组 / 可见技能卡片</text></g>
    <g transform="translate(1173 188)"><use href="#card-frame"/><use href="#i-memory" x="18" y="19" width="24" height="24" class="card-violet"/><text x="56" y="28" class="key">tool-memory</text><text x="56" y="47" class="meaning">memory 工具来源</text></g>
  </g>

  <!-- 5: status and operations -->
  <g transform="translate(40 1252)"><rect width="1520" height="258" rx="16" fill="#0b1728" fill-opacity=".76" stroke="#28445f"/><text x="24" y="34" class="label section-title">05  状态与操作</text><text x="210" y="34" class="section-note">反馈、运行控制和常见 Unicode / CSS 伪元素替换</text>
    <g transform="translate(24 52)"><use href="#card-frame"/><use href="#i-success" x="18" y="19" width="24" height="24" class="card-green"/><text x="56" y="28" class="key">success</text><text x="56" y="47" class="meaning">成功 / 已完成 / ✓</text></g>
    <g transform="translate(407 52)"><use href="#card-frame"/><use href="#i-warning" x="18" y="19" width="24" height="24" class="card-warm"/><text x="56" y="28" class="key">warning</text><text x="56" y="47" class="meaning">警告 / 需要关注</text></g>
    <g transform="translate(790 52)"><use href="#card-frame"/><use href="#i-error" x="18" y="19" width="24" height="24" class="card-red"/><text x="56" y="28" class="key">error</text><text x="56" y="47" class="meaning">失败 / 错误 / ×</text></g>
    <g transform="translate(1173 52)"><use href="#card-frame"/><use href="#i-info" x="18" y="19" width="24" height="24" class="card-blue"/><text x="56" y="28" class="key">info</text><text x="56" y="47" class="meaning">提示 / 帮助说明</text></g>
    <g transform="translate(24 124)"><use href="#card-frame"/><use href="#i-pending" x="18" y="19" width="24" height="24" class="card-warm"/><text x="56" y="28" class="key">pending</text><text x="56" y="47" class="meaning">排队 / 连接中 / 处理中</text></g>
    <g transform="translate(407 124)"><use href="#card-frame"/><use href="#i-run" x="18" y="19" width="24" height="24" class="card-green"/><text x="56" y="28" class="key">run</text><text x="56" y="47" class="meaning">运行 / 激活 / 播放</text></g>
    <g transform="translate(790 124)"><use href="#card-frame"/><use href="#i-stop" x="18" y="19" width="24" height="24" class="card-red"/><text x="56" y="28" class="key">stop</text><text x="56" y="47" class="meaning">停止 / 取消</text></g>
    <g transform="translate(1173 124)"><use href="#card-frame"/><use href="#i-refresh" x="18" y="19" width="24" height="24" class="card-blue"/><text x="56" y="28" class="key">refresh</text><text x="56" y="47" class="meaning">刷新 / 重试 / 同步</text></g>
    <g transform="translate(24 188)"><use href="#card-frame"/><use href="#i-save" x="18" y="19" width="24" height="24" class="card-blue"/><text x="56" y="28" class="key">save</text><text x="56" y="47" class="meaning">保存 / 提交配置</text></g>
    <g transform="translate(407 188)"><use href="#card-frame"/><use href="#i-edit" x="18" y="19" width="24" height="24" class="card-blue"/><text x="56" y="28" class="key">edit</text><text x="56" y="47" class="meaning">编辑 / 重命名 / ✎</text></g>
    <g transform="translate(790 188)"><use href="#card-frame"/><use href="#i-delete" x="18" y="19" width="24" height="24" class="card-red"/><text x="56" y="28" class="key">delete</text><text x="56" y="47" class="meaning">删除 / 移除</text></g>
    <g transform="translate(1173 188)"><use href="#card-frame"/><use href="#i-expand" x="18" y="19" width="24" height="24" class="card-blue"/><text x="56" y="28" class="key">expand-collapse</text><text x="56" y="47" class="meaning">展开收起 / CSS ⌄⌃</text></g>
  </g>

  <text x="56" y="1548" class="footer">图例：冷蓝 = 导航与工具 · 紫 = Auto / 管理 · 绿 = 可执行或成功 · 暖色 = 注意与 Dreaming · 红 = 破坏性或错误</text>
  <text x="1544" y="1548" text-anchor="end" class="footer">DAgents · design proposal · 2026-09</text>
</svg>
